<?xml version="1.0" encoding="utf-8"?>
<!-- Generator: Adobe Illustrator 17.1.0, SVG Export Plug-In . SVG Version: 6.00 Build 0)  -->
<!DOCTYPE svg PUBLIC "-//W3C//DTD SVG 1.1//EN" "http://www.w3.org/Graphics/SVG/1.1/DTD/svg11.dtd">
<svg version="1.1" id="Layer_1" xmlns="http://www.w3.org/2000/svg" xmlns:xlink="http://www.w3.org/1999/xlink" x="0px" y="0px"
	 viewBox="0 0 106 130" enable-background="new 0 0 106 130" xml:space="preserve">
<g>
	<path fill="#F7981D" stroke="#F7981D" stroke-miterlimit="10" d="M99.496,87.655c-1.449,20.543-20.981,37.254-46.863,37.254
		S5.769,108.23,5.769,87.655c0,0-6.047-11.617,28.219-54.88l16.125,14.421c0,0,11.086-20.83-1.008-40.058
		C49.105,7.138,102.519,44.793,99.496,87.655z"/>
	<path fill="#F6EB0F" stroke="#F6EB0F" stroke-miterlimit="10" d="M33.849,113.09c13.959,7.706,34,0.618,41.731-10.96
		c16.131-24.156-4.823-58.098-4.823-58.098c1.189,13.888-12.674,23.445-12.674,23.445L42.87,54.018
		C42.87,54.018-7.226,90.413,33.849,113.09z"/>
</g>
<rect fill="none" width="106" height="130"/>
</svg>
