<?xml version="1.0" encoding="utf-8"?>
<!-- Generator: Adobe Illustrator 17.1.0, SVG Export Plug-In . SVG Version: 6.00 Build 0)  -->
<!DOCTYPE svg PUBLIC "-//W3C//DTD SVG 1.1//EN" "http://www.w3.org/Graphics/SVG/1.1/DTD/svg11.dtd">
<svg version="1.1" id="Layer_1" xmlns="http://www.w3.org/2000/svg" xmlns:xlink="http://www.w3.org/1999/xlink" x="0px" y="0px"
	 viewBox="0 0 207 126" enable-background="new 0 0 207 126" xml:space="preserve">
<g>
	<path fill="#F7981D" stroke="#F7981D" stroke-miterlimit="10" d="M98.496,85.655c-1.449,20.543-20.981,37.254-46.863,37.254
		S4.769,106.23,4.769,85.655c0,0-6.047-11.617,28.219-54.88l16.125,14.421c0,0,11.086-20.83-1.008-40.058
		C48.105,5.138,101.519,42.793,98.496,85.655z"/>
	<path fill="#F6EB0F" stroke="#F6EB0F" stroke-miterlimit="10" d="M32.849,111.09c13.959,7.706,34,0.618,41.731-10.96
		c16.131-24.156-4.823-58.098-4.823-58.098c1.189,13.888-12.674,23.445-12.674,23.445L41.87,52.018
		C41.87,52.018-8.226,88.413,32.849,111.09z"/>
</g>
<g>
	<path fill="#F7981D" stroke="#F7981D" stroke-miterlimit="10" d="M200.955,86.114c-1.449,20.543-20.981,37.254-46.863,37.254
		s-46.863-16.679-46.863-37.254c0,0-6.047-11.617,28.219-54.88l16.125,14.421c0,0,11.086-20.83-1.008-40.058
		C150.564,5.597,203.978,43.252,200.955,86.114z"/>
	<path fill="#F6EB0F" stroke="#F6EB0F" stroke-miterlimit="10" d="M135.308,111.549c13.959,7.706,34,0.618,41.731-10.96
		c16.131-24.156-4.823-58.098-4.823-58.098c1.189,13.888-12.674,23.445-12.674,23.445l-15.213-13.46
		C144.329,52.477,94.233,88.872,135.308,111.549z"/>
</g>
<rect fill="none" width="207" height="126"/>
</svg>
