<?xml version="1.0" encoding="utf-8"?>
<!-- Generator: Adobe Illustrator 17.1.0, SVG Export Plug-In . SVG Version: 6.00 Build 0)  -->
<!DOCTYPE svg PUBLIC "-//W3C//DTD SVG 1.1//EN" "http://www.w3.org/Graphics/SVG/1.1/DTD/svg11.dtd">
<svg version="1.1" id="Layer_1" xmlns="http://www.w3.org/2000/svg" xmlns:xlink="http://www.w3.org/1999/xlink" x="0px" y="0px"
	 viewBox="0 0 515 133" enable-background="new 0 0 515 133" xml:space="preserve">
<rect fill="none" width="515" height="133"/>
<g>
	<path fill="#F7981D" stroke="#F7981D" stroke-miterlimit="10" d="M405.496,87.655c-1.449,20.543-20.981,37.254-46.863,37.254
		c-25.882,0-46.863-16.679-46.863-37.254c0,0-6.047-11.617,28.219-54.88l16.125,14.421c0,0,11.086-20.83-1.008-40.058
		C355.105,7.138,408.519,44.793,405.496,87.655z"/>
	<path fill="#F6EB0F" stroke="#F6EB0F" stroke-miterlimit="10" d="M339.849,113.09c13.959,7.706,34,0.618,41.731-10.96
		c16.131-24.156-4.823-58.098-4.823-58.098c1.189,13.888-12.674,23.445-12.674,23.445l-15.213-13.46
		C348.87,54.018,298.774,90.413,339.849,113.09z"/>
</g>
<g>
	<path fill="#F7981D" stroke="#F7981D" stroke-miterlimit="10" d="M507.955,88.114c-1.449,20.543-20.981,37.254-46.863,37.254
		c-25.882,0-46.863-16.679-46.863-37.254c0,0-6.047-11.617,28.219-54.88l16.125,14.421c0,0,11.086-20.83-1.008-40.058
		C457.564,7.597,510.978,45.252,507.955,88.114z"/>
	<path fill="#F6EB0F" stroke="#F6EB0F" stroke-miterlimit="10" d="M442.308,113.549c13.959,7.706,34,0.618,41.731-10.96
		c16.131-24.156-4.823-58.098-4.823-58.098c1.189,13.888-12.674,23.445-12.674,23.445l-15.213-13.46
		C451.329,54.477,401.233,90.872,442.308,113.549z"/>
</g>
<rect x="307" y="2" fill="none" width="207" height="126"/>
<g>
	<path fill="#F7981D" stroke="#F7981D" stroke-miterlimit="10" d="M202.496,88.655c-1.449,20.543-20.981,37.254-46.863,37.254
		s-46.863-16.679-46.863-37.254c0,0-6.047-11.617,28.219-54.88l16.125,14.421c0,0,11.086-20.83-1.008-40.058
		C152.105,8.138,205.519,45.793,202.496,88.655z"/>
	<path fill="#F6EB0F" stroke="#F6EB0F" stroke-miterlimit="10" d="M136.849,114.09c13.959,7.706,34,0.618,41.731-10.96
		c16.131-24.156-4.823-58.098-4.823-58.098c1.189,13.888-12.674,23.445-12.674,23.445l-15.213-13.46
		C145.87,55.018,95.774,91.413,136.849,114.09z"/>
</g>
<g>
	<path fill="#F7981D" stroke="#F7981D" stroke-miterlimit="10" d="M304.955,89.114c-1.449,20.543-20.981,37.254-46.863,37.254
		s-46.863-16.679-46.863-37.254c0,0-6.047-11.617,28.219-54.88l16.125,14.421c0,0,11.086-20.83-1.008-40.058
		C254.564,8.597,307.978,46.252,304.955,89.114z"/>
	<path fill="#F6EB0F" stroke="#F6EB0F" stroke-miterlimit="10" d="M239.308,114.549c13.959,7.706,34,0.618,41.731-10.96
		c16.131-24.156-4.823-58.098-4.823-58.098c1.189,13.888-12.674,23.445-12.674,23.445l-15.213-13.46
		C248.329,55.477,198.233,91.872,239.308,114.549z"/>
</g>
<rect x="104" y="3" fill="none" width="207" height="126"/>
<rect x="102" y="1" fill="none" width="411" height="130"/>
<g>
	<path fill="#F7981D" stroke="#F7981D" stroke-miterlimit="10" d="M101.037,88.573c-1.449,20.543-20.981,37.254-46.863,37.254
		S7.31,109.148,7.31,88.573c0,0-6.047-11.617,28.219-54.88l16.125,14.421c0,0,11.086-20.83-1.008-40.058
		C50.646,8.056,104.06,45.711,101.037,88.573z"/>
	<path fill="#F6EB0F" stroke="#F6EB0F" stroke-miterlimit="10" d="M35.39,114.008c13.959,7.706,34,0.618,41.731-10.96
		c16.131-24.156-4.823-58.098-4.823-58.098c1.189,13.888-12.674,23.445-12.674,23.445l-15.213-13.46
		C44.411,54.936-5.685,91.331,35.39,114.008z"/>
</g>
</svg>
