<?xml version="1.0" encoding="utf-8"?>
<!-- Generator: Adobe Illustrator 17.1.0, SVG Export Plug-In . SVG Version: 6.00 Build 0)  -->
<!DOCTYPE svg PUBLIC "-//W3C//DTD SVG 1.1//EN" "http://www.w3.org/Graphics/SVG/1.1/DTD/svg11.dtd">
<svg version="1.1" id="Layer_1" xmlns="http://www.w3.org/2000/svg" xmlns:xlink="http://www.w3.org/1999/xlink" x="0px" y="0px"
	 viewBox="0 0 311 131" enable-background="new 0 0 311 131" xml:space="preserve">
<g>
	<path fill="#F7981D" stroke="#F7981D" stroke-miterlimit="10" d="M303.496,86.655c-1.449,20.543-20.981,37.254-46.863,37.254
		s-46.863-16.679-46.863-37.254c0,0-6.047-11.617,28.219-54.88l16.125,14.421c0,0,11.086-20.83-1.008-40.058
		C253.105,6.138,306.519,43.793,303.496,86.655z"/>
	<path fill="#F6EB0F" stroke="#F6EB0F" stroke-miterlimit="10" d="M237.849,112.09c13.959,7.706,34,0.618,41.731-10.96
		c16.131-24.156-4.823-58.098-4.823-58.098c1.189,13.888-12.674,23.445-12.674,23.445l-15.213-13.46
		C246.87,53.018,196.774,89.413,237.849,112.09z"/>
</g>
<g>
	<path fill="#F7981D" stroke="#F7981D" stroke-miterlimit="10" d="M100.496,87.655c-1.449,20.543-20.981,37.254-46.863,37.254
		S6.769,108.23,6.769,87.655c0,0-6.047-11.617,28.219-54.88l16.125,14.421c0,0,11.086-20.83-1.008-40.058
		C50.105,7.138,103.519,44.793,100.496,87.655z"/>
	<path fill="#F6EB0F" stroke="#F6EB0F" stroke-miterlimit="10" d="M34.849,113.09c13.959,7.706,34,0.618,41.731-10.96
		c16.131-24.156-4.823-58.098-4.823-58.098c1.189,13.888-12.674,23.445-12.674,23.445L43.87,54.018
		C43.87,54.018-6.226,90.413,34.849,113.09z"/>
</g>
<g>
	<path fill="#F7981D" stroke="#F7981D" stroke-miterlimit="10" d="M202.955,88.114c-1.449,20.543-20.981,37.254-46.863,37.254
		s-46.863-16.679-46.863-37.254c0,0-6.047-11.617,28.219-54.88l16.125,14.421c0,0,11.086-20.83-1.008-40.058
		C152.564,7.597,205.978,45.252,202.955,88.114z"/>
	<path fill="#F6EB0F" stroke="#F6EB0F" stroke-miterlimit="10" d="M137.308,113.549c13.959,7.706,34,0.618,41.731-10.96
		c16.131-24.156-4.823-58.098-4.823-58.098c1.189,13.888-12.674,23.445-12.674,23.445l-15.213-13.46
		C146.329,54.477,96.233,90.872,137.308,113.549z"/>
</g>
<rect x="2" y="2" fill="none" width="207" height="126"/>
<rect fill="none" width="311" height="130"/>
<rect fill="none" width="310" height="131"/>
</svg>
